<svg xmlns="http://www.w3.org/2000/svg" width="201" height="119" viewBox="0 0 201 119" fill="none"><g clip-path="url(#clip0_35_671)"><path d="M100.264 68.0138C116.632 68.0138 129.902 54.7729 129.902 38.4394C129.902 32.204 125.396 26.4498 117.987 26.4498C102.367 26.4498 100.364 48.7305 82.0405 48.7305C75.7917 48.7305 70.6259 44.6749 70.6259 38.4394C70.6259 54.7729 83.8952 68.0138 100.264 68.0138Z" fill="url(#paint0_linear_35_671)"></path><path d="M72.2789 35.9973C72.2789 41.4006 76.6465 45.7809 82.0343 45.7809C87.5094 46.1928 92.5181 42.872 99.6734 34.8644C92.2925 34.4952 91.3294 26.2136 82.0343 26.2136C76.6465 26.2136 72.2789 30.5939 72.2789 35.9973Z" fill="url(#paint1_linear_35_671)"></path><path d="M108.884 13.8153C108.884 18.0542 105.447 21.4905 101.208 21.4905C96.9696 21.4905 93.5333 18.0542 93.5333 13.8153C93.5333 6.14015 101.208 0.354248 101.208 0.354248C101.208 0.354248 108.884 6.37631 108.884 13.8153Z" fill="url(#paint2_linear_35_671)"></path></g><path d="M14.1075 82.8277H18.411V102.778H14.1075V94.5412H6.5835V102.778H2.28V82.8277H6.5835V90.5227H14.1075V82.8277ZM24.127 102.778V82.8277H28.4305V102.778H24.127ZM41.6695 82.8277C47.5405 82.8277 51.787 87.0172 51.787 92.8027C51.787 98.5882 47.5405 102.778 41.6695 102.778H34.1455V82.8277H41.6695ZM41.584 98.7877C45.004 98.7877 47.3695 96.2797 47.3695 92.8027C47.3695 89.2687 45.004 86.8462 41.584 86.8462H38.449V98.7877H41.584ZM67.3825 102.778L63.478 95.9947H60.7135V102.778H56.41V82.8277H64.447C68.437 82.8277 71.4295 85.5922 71.4295 89.4397C71.4295 92.0617 70.0045 94.1707 67.7815 95.2537L72.199 102.778H67.3825ZM60.7135 86.8177V92.0047H64.162C65.986 92.0047 67.0405 90.9217 67.0405 89.4112C67.0405 87.9292 65.986 86.8177 64.162 86.8177H60.7135ZM85.6873 103.234C79.5883 103.234 75.0283 98.7307 75.0283 92.8027C75.0283 86.9032 79.5883 82.4002 85.6873 82.4002C91.7578 82.4002 96.2893 86.8747 96.2893 92.8027C96.2893 98.7592 91.7578 103.234 85.6873 103.234ZM85.6873 99.1582C89.2498 99.1582 91.9003 96.4222 91.9003 92.8027C91.9003 89.1832 89.2498 86.4757 85.6873 86.4757C82.1248 86.4757 79.4173 89.2117 79.4173 92.8027C79.4173 96.3937 82.1248 99.1582 85.6873 99.1582Z" fill="#3E66AD"></path><path d="M110.119 103.091C104.191 103.091 99.8872 98.7877 99.8872 92.8312C99.8872 86.8462 104.191 82.5427 110.119 82.5427C114.736 82.5427 118.441 85.2787 119.581 89.5822H117.016C115.961 86.7037 113.396 84.9652 110.119 84.9652C105.673 84.9652 102.452 88.2427 102.452 92.8312C102.452 97.4197 105.673 100.64 110.119 100.64C113.482 100.64 116.075 98.8162 117.13 95.7667H119.666C118.526 100.27 114.821 103.091 110.119 103.091ZM124.522 102.778V82.8277H127.03V102.778H124.522ZM147.074 82.8277H149.525V102.778H147.416L136.073 87.2167V102.778H133.622V82.8277H135.902L147.074 98.2177V82.8277ZM164.972 103.091C159.044 103.091 154.741 98.7877 154.741 92.8312C154.741 86.8462 159.044 82.5427 164.972 82.5427C169.589 82.5427 173.294 85.2787 174.434 89.5822H171.869C170.815 86.7037 168.25 84.9652 164.972 84.9652C160.526 84.9652 157.306 88.2427 157.306 92.8312C157.306 97.4197 160.526 100.64 164.972 100.64C168.335 100.64 170.929 98.8162 171.983 95.7667H174.52C173.38 100.27 169.675 103.091 164.972 103.091ZM188.467 103.12C182.425 103.12 178.007 98.7022 178.007 92.8312C178.007 86.9317 182.425 82.5142 188.467 82.5142C194.509 82.5142 198.898 86.9317 198.898 92.8312C198.898 98.7022 194.509 103.12 188.467 103.12ZM188.467 100.669C192.998 100.669 196.361 97.3057 196.361 92.8312C196.361 88.3282 192.998 84.9652 188.467 84.9652C183.935 84.9652 180.572 88.3567 180.572 92.8312C180.572 97.2772 183.935 100.669 188.467 100.669Z" fill="#86C058"></path><path d="M107.4 113.714C107.4 113.84 107.39 113.966 107.369 114.092H102.77C102.917 115.016 103.578 115.583 104.502 115.583C105.185 115.583 105.731 115.268 106.035 114.743H107.264C106.812 115.94 105.773 116.675 104.502 116.675C102.843 116.675 101.594 115.394 101.594 113.693C101.594 112.002 102.843 110.721 104.502 110.721C106.245 110.721 107.4 112.065 107.4 113.714ZM104.502 111.782C103.631 111.782 102.99 112.307 102.801 113.147H106.224C106.014 112.286 105.374 111.782 104.502 111.782ZM113.515 116.528H112.202L110.795 114.375L109.367 116.528H108.076L110.092 113.598L108.233 110.858H109.546L110.795 112.769L112.087 110.858H113.368L111.488 113.546L113.515 116.528ZM117.865 110.721C119.556 110.721 120.805 111.992 120.805 113.693C120.805 115.394 119.556 116.675 117.865 116.675C117.13 116.675 116.479 116.423 115.986 115.992V118.565H114.82V110.858H115.597L115.818 111.561C116.332 111.036 117.046 110.721 117.865 110.721ZM117.771 115.562C118.842 115.562 119.619 114.764 119.619 113.693C119.619 112.632 118.842 111.834 117.771 111.834C116.7 111.834 115.912 112.632 115.912 113.693C115.912 114.764 116.7 115.562 117.771 115.562ZM127.866 113.714C127.866 113.84 127.855 113.966 127.834 114.092H123.235C123.382 115.016 124.044 115.583 124.968 115.583C125.65 115.583 126.196 115.268 126.501 114.743H127.729C127.278 115.94 126.238 116.675 124.968 116.675C123.309 116.675 122.059 115.394 122.059 113.693C122.059 112.002 123.309 110.721 124.968 110.721C126.711 110.721 127.866 112.065 127.866 113.714ZM124.968 111.782C124.096 111.782 123.456 112.307 123.267 113.147H126.69C126.48 112.286 125.839 111.782 124.968 111.782ZM132.243 110.826H132.747V111.929H132.127C131.161 111.929 130.689 112.485 130.689 113.514V116.528H129.523V110.858H130.311L130.5 111.635C130.909 111.099 131.466 110.826 132.243 110.826ZM136.606 115.478H137.257V116.528H136.386C135.147 116.528 134.38 115.761 134.38 114.512V111.866H133.362V111.635L135.336 109.535H135.535V110.858H137.226V111.866H135.546V114.417C135.546 115.1 135.924 115.478 136.606 115.478ZM141.366 116.675C139.623 116.675 138.331 115.404 138.331 113.693C138.331 111.981 139.623 110.721 141.366 110.721C143.098 110.721 144.39 111.992 144.39 113.693C144.39 115.404 143.098 116.675 141.366 116.675ZM141.366 115.562C142.437 115.562 143.203 114.785 143.203 113.693C143.203 112.611 142.437 111.834 141.366 111.834C140.284 111.834 139.518 112.611 139.518 113.693C139.518 114.785 140.284 115.562 141.366 115.562ZM147.941 116.675C146.566 116.675 145.663 115.908 145.631 114.732H146.765C146.797 115.331 147.301 115.646 147.983 115.646C148.613 115.646 149.096 115.383 149.096 114.911C149.096 114.365 148.487 114.249 147.794 114.134C146.849 113.966 145.736 113.756 145.736 112.443C145.736 111.425 146.608 110.721 147.931 110.721C149.243 110.721 150.104 111.446 150.125 112.538H149.023C149.002 112.002 148.582 111.708 147.899 111.708C147.259 111.708 146.86 111.992 146.86 112.401C146.86 112.905 147.437 113 148.12 113.115C149.075 113.273 150.241 113.462 150.241 114.858C150.241 115.961 149.327 116.675 147.941 116.675ZM160.368 113.714C160.368 113.84 160.358 113.966 160.337 114.092H155.738C155.885 115.016 156.546 115.583 157.47 115.583C158.153 115.583 158.699 115.268 159.003 114.743H160.232C159.78 115.94 158.741 116.675 157.47 116.675C155.811 116.675 154.562 115.394 154.562 113.693C154.562 112.002 155.811 110.721 157.47 110.721C159.213 110.721 160.368 112.065 160.368 113.714ZM157.47 111.782C156.599 111.782 155.958 112.307 155.769 113.147H159.192C158.982 112.286 158.342 111.782 157.47 111.782ZM165.018 110.732C166.352 110.732 167.181 111.719 167.181 113.115V116.528H166.016V113.357C166.016 112.328 165.564 111.782 164.714 111.782C163.821 111.782 163.191 112.496 163.191 113.493V116.528H162.026V110.858H162.834L163.065 111.656C163.485 111.078 164.189 110.732 165.018 110.732ZM176.994 110.858H177.887V116.528H176.952L176.837 115.845C176.322 116.36 175.608 116.675 174.779 116.675C173.088 116.675 171.828 115.394 171.828 113.693C171.828 111.992 173.088 110.721 174.779 110.721C175.619 110.721 176.343 111.036 176.858 111.572L176.994 110.858ZM174.873 115.551C175.944 115.551 176.721 114.764 176.721 113.693C176.721 112.622 175.944 111.834 174.873 111.834C173.802 111.834 173.015 112.632 173.015 113.693C173.015 114.753 173.802 115.551 174.873 115.551ZM184.61 110.858H185.376V115.793C185.376 117.599 184.305 118.701 182.552 118.701C181.092 118.701 180.063 117.945 179.78 116.706H180.935C181.155 117.326 181.827 117.672 182.541 117.672C183.518 117.672 184.242 117.021 184.242 115.95V115.688C183.749 116.118 183.098 116.37 182.363 116.37C180.777 116.37 179.559 115.142 179.559 113.546C179.559 111.96 180.777 110.721 182.363 110.721C183.192 110.721 183.917 111.057 184.431 111.593L184.61 110.858ZM182.489 115.289C183.497 115.289 184.232 114.554 184.232 113.546C184.232 112.548 183.507 111.813 182.489 111.813C181.481 111.813 180.746 112.559 180.746 113.546C180.746 114.543 181.481 115.289 182.489 115.289ZM189.953 116.675C188.388 116.675 187.37 115.667 187.37 114.134V110.858H188.535V113.976C188.535 114.963 189.071 115.562 189.953 115.562C190.835 115.562 191.36 114.953 191.36 113.976V110.858H192.525V114.134C192.525 115.667 191.517 116.675 189.953 116.675ZM199.264 110.858H200.157V116.528H199.222L199.107 115.845C198.592 116.36 197.878 116.675 197.049 116.675C195.358 116.675 194.098 115.394 194.098 113.693C194.098 111.992 195.358 110.721 197.049 110.721C197.889 110.721 198.613 111.036 199.128 111.572L199.264 110.858ZM197.143 115.551C198.214 115.551 198.991 114.764 198.991 113.693C198.991 112.622 198.214 111.834 197.143 111.834C196.072 111.834 195.285 112.632 195.285 113.693C195.285 114.753 196.072 115.551 197.143 115.551Z" fill="#86C058"></path><defs><linearGradient id="paint0_linear_35_671" x1="61.0614" y1="40.6194" x2="135.097" y2="40.6194" gradientUnits="userSpaceOnUse"><stop stop-color="#2D337E"></stop><stop offset="0.390395" stop-color="#3E66AD"></stop><stop offset="0.732699" stop-color="#7AC4ED"></stop><stop offset="1" stop-color="#78C5C5"></stop></linearGradient><linearGradient id="paint1_linear_35_671" x1="72.2789" y1="34.8334" x2="99.6734" y2="35.0696" gradientUnits="userSpaceOnUse"><stop stop-color="#3D9A57"></stop><stop offset="1" stop-color="#86C058"></stop></linearGradient><linearGradient id="paint2_linear_35_671" x1="93.5333" y1="7.55979" x2="108.885" y2="7.65323" gradientUnits="userSpaceOnUse"><stop stop-color="#2D337E"></stop><stop offset="0.390395" stop-color="#3E66AD"></stop><stop offset="0.732699" stop-color="#7AC4ED"></stop><stop offset="1" stop-color="#78C5C5"></stop></linearGradient><clipPath id="clip0_35_671"><rect width="68.25" height="67.7777" fill="white" transform="translate(66.375)"></rect></clipPath></defs></svg>